<svg xmlns="http://www.w3.org/2000/svg" xmlns:xlink="http://www.w3.org/1999/xlink" preserveAspectRatio="xMidYMid" width="82.063" height="86.313" viewBox="0 0 82.063 86.313">
  <defs>
    <style>
      .icon {
        fill: #fff;
        fill-rule: evenodd;
      }
    </style>
  </defs>
  <path d="M80.547,66.259 L62.475,76.824 C62.314,76.917 62.147,76.986 61.979,77.047 C61.733,77.238 61.460,77.353 61.169,77.353 L38.010,77.353 C36.353,82.553 31.488,86.322 25.741,86.322 C18.628,86.322 12.862,80.554 12.862,73.439 C12.862,66.324 18.628,60.557 25.741,60.557 C31.474,60.557 36.327,64.307 37.996,69.486 L59.440,69.486 L76.613,59.446 C78.080,58.599 79.956,59.102 80.802,60.569 L81.669,62.070 C82.516,63.536 82.013,65.412 80.547,66.259 ZM25.720,67.425 C22.399,67.425 19.706,70.112 19.706,73.427 C19.706,76.742 22.399,79.429 25.720,79.429 C29.042,79.429 31.734,76.742 31.734,73.427 C31.734,70.112 29.042,67.425 25.720,67.425 ZM58.195,47.650 C52.451,47.650 47.590,43.882 45.934,38.682 L25.120,38.682 C23.466,43.882 18.609,47.650 12.870,47.650 C5.769,47.650 0.012,41.882 0.012,34.767 C0.012,29.067 3.712,24.239 8.834,22.542 L8.834,3.076 C8.834,1.383 10.207,0.010 11.901,0.010 L13.799,0.010 C15.493,0.010 16.866,1.383 16.866,3.076 L16.866,22.527 C20.781,23.809 23.868,26.918 25.120,30.853 L45.934,30.853 C47.590,25.653 52.451,21.885 58.195,21.885 C65.303,21.885 71.065,27.652 71.065,34.767 C71.065,41.882 65.303,47.650 58.195,47.650 ZM12.862,28.753 C9.545,28.753 6.856,31.440 6.856,34.755 C6.856,38.070 9.545,40.757 12.862,40.757 C16.179,40.757 18.868,38.070 18.868,34.755 C18.868,31.440 16.179,28.753 12.862,28.753 ZM58.195,28.753 C54.880,28.753 52.193,31.440 52.193,34.755 C52.193,38.070 54.880,40.757 58.195,40.757 C61.510,40.757 64.197,38.070 64.197,34.755 C64.197,31.440 61.510,28.753 58.195,28.753 Z" class="icon"/>
</svg>
